<svg width="18" height="20" viewBox="0 0 18 20" fill="none" xmlns="http://www.w3.org/2000/svg">
<g id="Frame" clip-path="url(#clip0_528_1142)">
<path id="Vector" d="M9.0004 0C6.76637 0 4.93261 1.73384 4.93261 3.84616V4.61539H0.915254L0.864814 5.33692L0.0512544 19.1831L0 20H18L17.9496 19.1823L17.136 5.33616L17.0848 4.61539H13.0682V3.84616C13.0682 1.73384 11.2344 0 9.0004 0ZM9.0004 1.53847C9.64771 1.53847 10.2685 1.78159 10.7262 2.21437C11.1839 2.64715 11.4411 3.23412 11.4411 3.84616V4.61539H6.55973V3.84616C6.55973 3.23412 6.81688 2.64715 7.27459 2.21437C7.7323 1.78159 8.35309 1.53847 9.0004 1.53847ZM2.44068 6.15384H4.93261V8.46153H6.55973V6.15384H11.4411V8.46153H13.0682V6.15384H15.5602L16.272 18.4616H1.72963L2.44068 6.15384Z" fill="black"/>
</g>
<defs>
<clipPath id="clip0_528_1142">
<rect width="18" height="20" fill="white"/>
</clipPath>
</defs>
</svg>
