<svg width="25" height="25" viewBox="0 0 25 25" fill="none" xmlns="http://www.w3.org/2000/svg">
<g id="ant-design:instagram-filled">
<path id="Vector" d="M12.4997 9.24487C10.7078 9.24487 9.24536 10.7073 9.24536 12.4993C9.24536 14.2913 10.7078 15.7537 12.4997 15.7537C14.2917 15.7537 15.7541 14.2913 15.7541 12.4993C15.7541 10.7073 14.2917 9.24487 12.4997 9.24487ZM22.2605 12.4993C22.2605 11.1516 22.2727 9.81616 22.197 8.47094C22.1213 6.90844 21.7649 5.52172 20.6223 4.37914C19.4773 3.23412 18.093 2.88012 16.5305 2.80444C15.1829 2.72875 13.8474 2.74096 12.5022 2.74096C11.1545 2.74096 9.81909 2.72875 8.47387 2.80444C6.91137 2.88012 5.52465 3.23657 4.38207 4.37914C3.23705 5.52416 2.88305 6.90844 2.80737 8.47094C2.73168 9.8186 2.74389 11.154 2.74389 12.4993C2.74389 13.8445 2.73168 15.1824 2.80737 16.5276C2.88305 18.0901 3.2395 19.4768 4.38207 20.6194C5.52709 21.7644 6.91137 22.1184 8.47387 22.1941C9.82153 22.2698 11.157 22.2576 12.5022 22.2576C13.8498 22.2576 15.1853 22.2698 16.5305 22.1941C18.093 22.1184 19.4797 21.762 20.6223 20.6194C21.7673 19.4744 22.1213 18.0901 22.197 16.5276C22.2751 15.1824 22.2605 13.8469 22.2605 12.4993ZM12.4997 17.5066C9.72875 17.5066 7.49243 15.2703 7.49243 12.4993C7.49243 9.72826 9.72875 7.49194 12.4997 7.49194C15.2707 7.49194 17.5071 9.72826 17.5071 12.4993C17.5071 15.2703 15.2707 17.5066 12.4997 17.5066ZM17.7122 8.45629C17.0652 8.45629 16.5427 7.93383 16.5427 7.28686C16.5427 6.63989 17.0652 6.11743 17.7122 6.11743C18.3591 6.11743 18.8816 6.63989 18.8816 7.28686C18.8818 7.44049 18.8517 7.59264 18.793 7.73461C18.7343 7.87658 18.6481 8.00557 18.5395 8.1142C18.4309 8.22283 18.3019 8.30897 18.1599 8.36767C18.0179 8.42637 17.8658 8.45649 17.7122 8.45629Z" fill="#FFF4EB"/>
</g>
</svg>
