<svg width="132" height="132" viewBox="0 0 132 132" fill="none" xmlns="http://www.w3.org/2000/svg">
<g id="quote">
<path id="Vector" d="M20.3019 34.606C28.0184 26.2405 39.6949 22 55.0014 22H60.5014V37.5045L56.0794 38.39C48.5444 39.897 43.3029 42.8615 40.4979 47.212C39.0343 49.5557 38.2042 52.2392 38.0889 55H55.0014C56.4601 55 57.859 55.5795 58.8905 56.6109C59.9219 57.6424 60.5014 59.0413 60.5014 60.5V99C60.5014 105.066 55.5679 110 49.5014 110H16.5014C15.0427 110 13.6437 109.421 12.6123 108.389C11.5808 107.358 11.0014 105.959 11.0014 104.5V77L11.0179 60.9455C10.9684 60.335 9.92338 45.87 20.3019 34.606ZM110.001 110H77.0014C75.5427 110 74.1437 109.421 73.1123 108.389C72.0808 107.358 71.5014 105.959 71.5014 104.5V77L71.5179 60.9455C71.4684 60.335 70.4234 45.87 80.8019 34.606C88.5184 26.2405 100.195 22 115.501 22H121.001V37.5045L116.579 38.39C109.044 39.897 103.803 42.8615 100.998 47.212C99.5343 49.5557 98.7042 52.2392 98.5889 55H115.501C116.96 55 118.359 55.5795 119.39 56.6109C120.422 57.6424 121.001 59.0413 121.001 60.5V99C121.001 105.066 116.068 110 110.001 110Z" fill="#FFF4EB"/>
</g>
</svg>
