<svg width="25" height="25" viewBox="0 0 25 25" fill="none" xmlns="http://www.w3.org/2000/svg">
<g id="akar-icons:twitter-fill">
<path id="Vector" d="M24.6277 5.14208C23.7579 5.52749 22.8235 5.78791 21.8412 5.90562C22.8548 5.29915 23.613 4.34465 23.9745 3.2202C23.0223 3.78582 21.9801 4.18395 20.8933 4.39729C20.1624 3.61694 19.1944 3.09971 18.1395 2.9259C17.0845 2.7521 16.0017 2.93144 15.0592 3.43609C14.1166 3.94074 13.367 4.74245 12.9268 5.71677C12.4866 6.69108 12.3803 7.78348 12.6245 8.82437C10.6951 8.72749 8.80749 8.22598 7.08436 7.35239C5.36123 6.47881 3.84105 5.25266 2.62246 3.75353C2.20579 4.47229 1.96621 5.30562 1.96621 6.19312C1.96575 6.99207 2.16249 7.77879 2.539 8.48346C2.91551 9.18814 3.46013 9.78899 4.12454 10.2327C3.354 10.2082 2.60045 9.99998 1.92663 9.62541V9.68791C1.92655 10.8085 2.31416 11.8946 3.02369 12.7619C3.73322 13.6292 4.72097 14.2243 5.81934 14.4462C5.10453 14.6397 4.3551 14.6682 3.62767 14.5296C3.93756 15.4938 4.54121 16.3369 5.35409 16.941C6.16698 17.545 7.14842 17.8798 8.161 17.8983C6.44208 19.2477 4.31922 19.9797 2.13392 19.9765C1.74682 19.9766 1.36004 19.954 0.975586 19.9087C3.19379 21.335 5.77594 22.0919 8.41309 22.089C17.3402 22.089 22.2204 14.6952 22.2204 8.2827C22.2204 8.07437 22.2152 7.86395 22.2058 7.65562C23.1551 6.96913 23.9745 6.11905 24.6256 5.1452L24.6277 5.14208Z" fill="#FFF4EB"/>
</g>
</svg>
