<svg width="25" height="25" viewBox="0 0 25 25" fill="none" xmlns="http://www.w3.org/2000/svg">
<g id="akar-icons:youtube-fill" clip-path="url(#clip0_528_1249)">
<path id="Vector" d="M24.4798 6.77873C24.3383 6.27377 24.0625 5.81659 23.6819 5.45582C23.2905 5.08395 22.8109 4.81794 22.2881 4.6829C20.3319 4.16727 12.4944 4.16727 12.4944 4.16727C9.22703 4.1301 5.96046 4.2936 2.71314 4.65686C2.19042 4.80187 1.71165 5.07382 1.31939 5.44852C0.933976 5.81936 0.65481 6.27665 0.508976 6.77769C0.158656 8.66492 -0.0115529 10.5812 0.000642899 12.5006C-0.0118571 14.4183 0.157935 16.3339 0.508976 18.2235C0.651685 18.7225 0.92981 19.1777 1.31627 19.5454C1.70273 19.9131 2.18398 20.1787 2.71314 20.3194C4.69544 20.8339 12.4944 20.8339 12.4944 20.8339C15.7659 20.8712 19.0366 20.7077 22.2881 20.3444C22.8109 20.2093 23.2905 19.9433 23.6819 19.5714C24.0624 19.2107 24.3378 18.7535 24.4788 18.2485C24.8382 16.362 25.013 14.445 25.0006 12.5246C25.0277 10.596 24.8531 8.66995 24.4798 6.77769V6.77873ZM10.0027 16.0673V8.93498L16.5236 12.5016L10.0027 16.0673Z" fill="#FFF4EB"/>
</g>
<defs>
<clipPath id="clip0_528_1249">
<rect width="25" height="25" fill="white"/>
</clipPath>
</defs>
</svg>
